<?xml version="1.0" encoding="utf-8"?>
<!-- Generator: Adobe Illustrator 13.0.0, SVG Export Plug-In . SVG Version: 6.00 Build 14948)  -->
<!DOCTYPE svg PUBLIC "-//W3C//DTD SVG 1.1//EN" "http://www.w3.org/Graphics/SVG/1.1/DTD/svg11.dtd">
<svg version="1.1" id="Ebene_1" xmlns="http://www.w3.org/2000/svg" xmlns:xlink="http://www.w3.org/1999/xlink" x="0px" y="0px"
	 width="378.16px" height="116.812px" viewBox="0 0 378.16 116.812" enable-background="new 0 0 378.16 116.812"
	 xml:space="preserve">
<g>
	<path fill="#ffffff" d="M175.206,0.685c1.61,8.691,3.146,18.036,4.756,28.935c1.101-0.141,2.188-0.247,3.243-0.323
		c-0.554-10.994-0.877-20.452-0.999-29.294C179.845,0.135,177.511,0.365,175.206,0.685 M158.932,4.608
		c3.28,8.21,6.615,17.075,10.327,27.451c1.048-0.352,2.092-0.67,3.12-0.947c-2.697-10.683-4.868-19.9-6.717-28.546
		C163.379,3.156,161.136,3.841,158.932,4.608 M130.252,21.5c6.175,6.325,12.648,13.233,20.048,21.386
		c0.829-0.722,1.671-1.412,2.517-2.065c-6.582-8.824-12.117-16.499-17.141-23.776C133.806,18.457,131.996,19.942,130.252,21.5
		 M143.752,11.645c4.829,7.422,9.831,15.46,15.492,24.897c0.956-0.548,1.917-1.063,2.872-1.539
		c-4.731-9.941-8.661-18.556-12.17-26.678C147.831,9.348,145.766,10.457,143.752,11.645 M224.172,8.305
		c-3.504,8.089-7.436,16.703-12.182,26.683c0.984,0.488,1.967,1.014,2.941,1.572c5.688-9.471,10.688-17.516,15.488-24.908
		C228.389,10.454,226.307,9.334,224.172,8.305 M208.451,2.554c-1.852,8.622-4.023,17.838-6.725,28.548
		c1.055,0.286,2.125,0.61,3.191,0.969c3.727-10.398,7.057-19.265,10.322-27.458C213.016,3.837,210.754,3.146,208.451,2.554
		 M190.896,29.296c1.083,0.073,2.194,0.183,3.323,0.329c1.615-10.921,3.148-20.264,4.746-28.939
		c-2.324-0.322-4.68-0.555-7.061-0.686C191.775,8.815,191.449,18.273,190.896,29.296 M238.449,17.019
		c-5.018,7.249-10.557,14.928-17.154,23.777c0.865,0.67,1.729,1.377,2.574,2.115c7.42-8.172,13.896-15.084,20.051-21.401
		C242.16,19.939,240.336,18.44,238.449,17.019"/>
	<path fill="#ffffff" d="M37.536,65.567c0,7.324-5.686,11.996-14.503,11.996h-13.3v10.844H0V54.196h23.225
		C32.188,54.196,37.536,58.484,37.536,65.567L37.536,65.567z M27.272,65.808c0-3.275-2.312-5.061-6.408-5.061H9.733v10.264h11.083
		C24.863,71.011,27.272,69.132,27.272,65.808L27.272,65.808z"/>
	<path fill="#ffffff" d="M67.641,81.517H48.607l-3.132,6.891H34.971l17.058-34.211H64.22l17.057,34.211H70.772L67.641,81.517L67.641,81.517z
		 M64.749,75.253l-3.372-7.373c-1.687-3.518-2.554-5.443-3.18-7.902h-0.145c-0.627,2.459-1.494,4.385-3.181,7.902l-3.372,7.373
		H64.749L64.749,75.253z"/>
	<path fill="#ffffff" d="M86.179,54.196h10.408l17.78,19.418c1.109,1.35,2.072,2.506,2.699,3.854h0.193v-4.914V54.196h8.818v34.211h-9.686
		L97.936,68.796c-0.915-1.061-2.216-2.795-2.746-3.902h-0.193v4.768v18.746h-8.818V54.196L86.179,54.196z"/>
	<path fill="#ffffff" d="M132.182,71.3c0-11.129,9.011-18.309,22.936-18.309c13.877,0,22.937,7.18,22.937,18.309
		c0,11.131-9.059,18.311-22.937,18.311C141.193,89.61,132.182,82.384,132.182,71.3L132.182,71.3z M167.742,71.3
		c0-6.648-5.059-11.082-12.624-11.082c-7.613,0-12.672,4.434-12.672,11.082c0,6.602,5.059,11.084,12.672,11.084
		C162.683,82.384,167.742,77.95,167.742,71.3L167.742,71.3z"/>
	<path fill="#ffffff" d="M203.773,76.313h-9.879v12.094h-9.732V54.196h23.322c10.986,0,14.166,5.637,14.166,10.84c0,3.807-1.93,8.289-7.662,10.166
		l8.914,13.205h-10.988L203.773,76.313L203.773,76.313z M193.895,70.097h11.371c4.676,0,6.072-2.361,6.072-4.77
		c0-2.363-1.396-4.627-6.072-4.627h-11.371V70.097L193.895,70.097z"/>
	<path fill="#ffffff" d="M258.979,81.517h-19.031l-3.133,6.891h-10.504l17.057-34.211h12.191l17.057,34.211h-10.504L258.979,81.517L258.979,81.517z
		 M256.09,75.253l-3.375-7.373c-1.686-3.518-2.555-5.443-3.18-7.902h-0.145c-0.625,2.459-1.494,4.385-3.18,7.902l-3.371,7.373
		H256.09L256.09,75.253z"/>
	<path fill="#ffffff" d="M277.518,54.196h14.551l8.82,20.717c0.48,1.352,0.963,2.555,1.154,3.664h0.098c0.191-1.109,0.674-2.312,1.205-3.76
		l8.721-20.622h14.936v34.211h-8.961V66.675c0-1.781,0.145-4,0.482-5.877h-0.193c-0.289,0.963-1.203,3.611-2.07,5.541l-9.83,22.068
		h-9.156l-9.541-22.021c-0.82-2.072-1.445-4.191-1.83-5.588h-0.24c0.336,1.686,0.385,3.854,0.385,5.877v21.732h-8.529V54.196
		L277.518,54.196z"/>
	<path fill="#ffffff" d="M364.525,81.517H345.49l-3.131,6.891h-10.506l17.057-34.211h12.193l17.057,34.211h-10.504L364.525,81.517L364.525,81.517z
		 M361.633,75.253l-3.373-7.373c-1.686-3.518-2.555-5.443-3.182-7.902h-0.143c-0.627,2.459-1.494,4.385-3.18,7.902l-3.373,7.373
		H361.633L361.633,75.253z"/>
	<path fill="#ffffff" d="M147.693,112.085c0,2.432-1.639,4.727-6.273,4.727h-12.802v-16.617h12.709c4.166,0,5.944,1.848,5.944,4.213
		c0,1.686-1.029,3.205-3.276,3.674C146.499,108.454,147.693,109.907,147.693,112.085L147.693,112.085z M133.346,103.282v3.629h6.694
		c1.942,0,2.34-1.006,2.34-1.92c0-0.818-0.468-1.709-2.34-1.709H133.346L133.346,103.282z M142.801,111.708
		c0-1.146-0.772-1.941-2.551-1.941h-6.904v3.955h6.904C142.052,113.722,142.801,112.831,142.801,111.708L142.801,111.708z"/>
	<polygon fill="#ffffff" points="169.071,113.487 169.071,116.812 152.126,116.812 152.126,100.194 168.907,100.194 168.907,103.517
		156.854,103.517 156.854,106.841 168.51,106.841 168.51,109.931 156.854,109.931 156.854,113.487 169.071,113.487 	"/>
	<path fill="#ffffff" d="M183.406,110.937h-4.798v5.875h-4.727v-16.617h11.327c5.335,0,6.882,2.738,6.882,5.266c0,1.848-0.938,4.023-3.723,4.938
		l4.331,6.414h-5.335L183.406,110.937L183.406,110.937z M178.608,107.917h5.523c2.272,0,2.95-1.146,2.95-2.318
		c0-1.145-0.678-2.246-2.95-2.246h-5.523V107.917L178.608,107.917z"/>
	<polygon fill="#ffffff" points="196.57,100.194 201.299,100.194 201.299,113.112 212.555,113.112 212.555,116.812 196.57,116.812 196.57,100.194
		"/>
	<polygon fill="#ffffff" points="216.15,116.812 216.15,100.194 220.875,100.194 220.875,116.812 216.15,116.812 	"/>
	<path fill="#ffffff" d="M226.16,100.194h5.055l8.637,9.432c0.539,0.654,1.006,1.217,1.309,1.871h0.094v-2.387v-8.916h4.283v16.617h-4.705
		l-8.961-9.527c-0.445-0.514-1.078-1.357-1.336-1.895h-0.092v2.316v9.105h-4.283V100.194L226.16,100.194z"/>
</g>
</svg>
